<?xml version="1.0" standalone="no"?>
<!DOCTYPE svg PUBLIC "-//W3C//DTD SVG 20010904//EN"
 "http://www.w3.org/TR/2001/REC-SVG-20010904/DTD/svg10.dtd">
<svg version="1.0" xmlns="http://www.w3.org/2000/svg"
 width="978.000000pt" height="207.000000pt" viewBox="0 0 978.000000 207.000000"
 preserveAspectRatio="xMidYMid meet">

<g transform="translate(0.000000,207.000000) scale(0.100000,-0.100000)"
fill="#000000" stroke="none">
<path d="M260 2057 c-19 -6 -50 -27 -70 -47 -31 -33 -147 -237 -177 -315 -15
-40 -18 -1492 -2 -1548 13 -49 63 -105 114 -128 38 -17 88 -19 850 -19 545 0
823 4 849 11 60 17 121 85 136 150 8 39 10 257 8 789 l-3 735 -85 160 c-79
147 -89 162 -134 190 l-49 30 -701 2 c-491 1 -711 -2 -736 -10z m1385 -101
c67 -28 65 -4 65 -722 l0 -646 -34 -34 -34 -34 -651 0 c-708 0 -694 -1 -719
55 -18 38 -17 1300 1 1335 7 14 28 33 47 42 32 17 85 18 663 18 520 0 633 -2
662 -14z m-1403 -1428 c15 -19 41 -41 57 -48 17 -7 31 -15 31 -19 0 -4 -28
-33 -61 -66 -64 -62 -109 -140 -109 -187 0 -16 3 -28 8 -28 4 0 72 65 152 145
125 125 180 167 180 138 0 -4 -71 -79 -157 -166 l-158 -158 25 -19 c19 -15 21
-20 8 -20 -28 0 -65 17 -87 41 -21 23 -21 25 -21 772 l0 749 48 91 47 92 5
-641 5 -641 27 -35z m1594 1180 l24 -47 0 -746 0 -745 -29 -32 c-25 -28 -35
-32 -92 -36 l-64 -4 63 64 c34 35 62 69 62 76 0 7 -7 27 -16 43 l-15 31 -109
-106 c-67 -66 -116 -106 -129 -106 -12 0 -21 3 -21 7 0 4 54 62 121 129 l120
121 -17 36 c-10 20 -20 37 -23 37 -4 0 -80 -74 -171 -165 -125 -125 -171 -165
-190 -165 -21 0 3 28 148 173 94 95 172 176 172 180 0 4 -8 7 -17 7 -11 0 -2
9 21 23 22 12 49 35 60 50 21 28 21 37 24 670 l2 642 26 -45 c14 -25 37 -66
50 -92z m-1156 -1246 c0 -4 -80 -87 -178 -185 -122 -121 -185 -177 -200 -177
-12 0 -22 4 -22 8 0 4 80 87 178 185 122 121 185 177 200 177 12 0 22 -4 22
-8z m170 1 c0 -16 -356 -363 -372 -363 -10 0 -18 3 -18 7 0 16 356 363 372
363 10 0 18 -3 18 -7z m180 -1 c0 -4 -80 -87 -178 -185 -122 -121 -185 -177
-200 -177 -12 0 -22 4 -22 8 0 4 80 87 178 185 122 121 185 177 200 177 12 0
22 -4 22 -8z m170 1 c0 -4 -80 -88 -177 -185 -136 -136 -184 -178 -203 -178
-21 0 5 30 160 185 159 160 220 209 220 178z m180 -178 c-159 -160 -220 -209
-220 -178 0 4 80 88 177 185 136 136 184 178 203 178 21 0 -5 -30 -160 -185z
m-175 -5 c-127 -127 -186 -180 -202 -180 -13 0 -23 3 -23 7 0 4 78 85 172 180
147 147 177 173 203 173 28 0 17 -13 -150 -180z"/>
<path d="M832 1277 c-85 -85 -132 -140 -132 -153 0 -23 29 -54 50 -54 7 0 61
47 120 105 58 58 111 105 117 105 6 0 55 -47 110 -105 55 -58 108 -105 117
-105 33 0 56 20 56 48 0 22 -27 54 -133 160 -81 81 -140 132 -152 132 -13 0
-71 -51 -153 -133z"/>
<path d="M1764 139 c-22 -24 -24 -29 -8 -21 24 13 49 40 42 47 -2 3 -18 -9
-34 -26z"/>
<path d="M2894 2059 c-57 -16 -100 -69 -181 -219 l-78 -145 -3 -760 c-3 -850
-6 -812 68 -879 21 -19 56 -40 77 -46 27 -8 279 -10 860 -8 l821 3 44 30 c23
17 54 51 68 75 l25 45 0 765 0 765 -79 148 c-85 159 -110 190 -171 218 -38 17
-81 19 -730 18 -379 0 -704 -5 -721 -10z m1382 -104 c66 -27 65 -10 62 -731
l-3 -646 -33 -29 -32 -29 -651 0 c-705 0 -692 -1 -717 55 -9 19 -12 193 -12
673 0 716 -3 678 64 708 48 21 1272 20 1322 -1z m-1410 -1422 c11 -15 37 -37
57 -49 l36 -20 -60 -60 c-37 -36 -70 -80 -85 -113 -23 -52 -32 -111 -16 -111
4 0 72 65 152 145 125 125 180 167 180 138 0 -4 -71 -79 -157 -166 l-158 -158
24 -20 c29 -23 8 -26 -43 -5 -69 29 -67 0 -64 818 l3 733 50 90 50 90 5 -642
c5 -632 5 -642 26 -670z m1624 385 l0 -748 -27 -30 c-17 -18 -42 -32 -63 -36
l-35 -6 33 27 c17 14 32 32 32 38 0 6 -17 -6 -38 -26 -23 -22 -48 -37 -62 -37
-22 0 -18 7 39 64 l63 64 -12 36 c-6 20 -16 39 -22 42 -5 4 -58 -41 -117 -100
-92 -92 -141 -126 -141 -98 0 4 54 61 120 127 66 66 120 122 120 125 0 3 -9
20 -21 39 l-21 34 -166 -166 c-126 -126 -173 -167 -192 -167 -21 0 4 29 148
173 94 95 172 176 172 180 0 4 -8 7 -17 7 -11 0 -1 10 22 23 26 14 48 37 63
67 l22 44 0 626 0 625 50 -90 49 -90 1 -747z m-1291 -565 c-176 -181 -252
-253 -271 -253 -10 0 -18 3 -18 7 0 4 80 88 177 185 133 133 184 178 202 178
21 0 7 -18 -90 -117z m281 110 c0 -4 -80 -88 -177 -185 -136 -136 -184 -178
-203 -178 -21 0 5 30 160 185 159 160 220 209 220 178z m0 -178 c-160 -160
-220 -209 -220 -177 0 4 80 87 178 185 133 132 184 177 203 177 19 0 -9 -33
-161 -185z m350 178 c0 -4 -80 -88 -177 -185 -136 -136 -184 -178 -203 -178
-21 0 5 30 160 185 159 160 220 209 220 178z m350 0 c0 -4 -80 -88 -177 -185
-136 -136 -184 -178 -203 -178 -21 0 5 30 160 185 159 160 220 209 220 178z
m-347 -183 c-131 -134 -181 -180 -199 -180 -13 0 -24 3 -24 7 0 4 78 85 172
180 137 137 178 173 199 173 24 0 5 -22 -148 -180z"/>
<path d="M3348 1399 c-10 -6 -18 -22 -18 -37 0 -22 27 -54 133 -160 76 -75
142 -132 152 -132 11 0 76 57 152 133 135 135 153 163 121 195 -31 31 -61 13
-170 -95 l-108 -108 -108 108 c-59 59 -114 107 -122 107 -8 0 -23 -5 -32 -11z"/>
<path d="M5452 2059 c-58 -17 -112 -85 -190 -240 l-73 -144 1 -755 c0 -708 2
-757 19 -795 22 -50 79 -101 128 -115 27 -8 284 -10 853 -8 804 3 816 3 855
24 22 11 54 40 70 63 l30 43 0 786 0 787 -74 135 c-82 151 -108 184 -166 211
-38 18 -79 19 -730 18 -408 -1 -704 -5 -723 -10z m1382 -104 c64 -30 61 2 64
-690 2 -430 0 -642 -8 -667 -6 -20 -22 -46 -37 -57 -25 -21 -35 -21 -685 -21
l-660 0 -29 29 -29 29 0 660 0 660 25 31 c14 16 36 32 48 34 12 2 305 5 650 6
540 1 633 -1 661 -14z m-1408 -1422 c11 -15 37 -37 57 -49 l36 -20 -60 -60
c-65 -62 -109 -142 -109 -194 0 -17 3 -30 8 -30 4 0 72 65 152 145 125 125
180 167 180 138 0 -4 -71 -79 -157 -166 l-158 -158 24 -20 c29 -24 8 -26 -45
-4 -67 28 -65 1 -62 818 l3 732 50 90 50 90 5 -642 c5 -632 5 -642 26 -670z
m1622 393 c3 -831 6 -783 -63 -812 -52 -21 -60 -17 -26 15 17 16 31 33 31 37
0 4 -17 -9 -38 -29 -23 -22 -48 -37 -62 -37 -22 0 -17 7 39 64 64 65 64 65 51
98 -7 18 -17 37 -22 43 -5 6 -51 -33 -116 -98 -93 -93 -142 -127 -142 -99 0 4
54 61 119 126 114 113 119 120 109 147 -21 59 -26 56 -198 -116 -116 -116
-171 -165 -187 -165 -13 0 -23 2 -23 4 0 2 76 82 169 177 111 115 164 175 154
178 -10 2 -2 11 23 25 25 14 47 37 62 66 l22 44 0 626 1 625 47 -85 47 -85 3
-749z m-1358 -641 c-159 -160 -220 -209 -220 -178 0 4 80 88 177 185 136 136
184 178 203 178 21 0 -5 -30 -160 -185z m350 178 c0 -4 -80 -88 -177 -185
-136 -136 -184 -178 -203 -178 -21 0 5 30 160 185 159 160 220 209 220 178z
m0 -178 c-159 -160 -220 -209 -220 -178 0 4 80 88 177 185 136 136 184 178
203 178 21 0 -5 -30 -160 -185z m350 178 c0 -4 -80 -88 -177 -185 -136 -136
-184 -178 -203 -178 -21 0 5 30 160 185 159 160 220 209 220 178z m350 0 c0
-4 -80 -88 -177 -185 -136 -136 -184 -178 -203 -178 -21 0 5 30 160 185 159
160 220 209 220 178z m-347 -178 c-153 -160 -202 -200 -220 -181 -4 4 71 85
167 181 127 127 181 175 198 175 19 0 -8 -33 -145 -175z"/>
<path d="M6042 1503 c-23 -9 -34 -41 -21 -65 6 -13 57 -67 113 -120 l101 -96
-107 -109 c-71 -71 -108 -116 -108 -130 0 -21 33 -53 54 -53 5 0 69 59 143
132 103 102 133 138 133 158 0 20 -30 56 -133 158 -126 125 -144 138 -175 125z"/>
<path d="M8075 2055 c-58 -20 -101 -75 -183 -234 l-72 -141 2 -774 3 -773 29
-41 c18 -26 47 -51 79 -67 l51 -25 816 0 816 0 53 26 c34 17 62 41 79 67 l27
41 3 774 2 775 -76 146 c-84 161 -109 194 -169 222 -38 18 -79 19 -730 18
-566 0 -697 -2 -730 -14z m1378 -94 c14 -6 35 -20 46 -32 21 -23 21 -26 21
-687 l0 -664 -29 -29 -29 -29 -662 0 -662 0 -29 29 -29 29 0 660 0 660 25 31
c14 16 36 32 48 34 46 9 1276 7 1300 -2z m-1416 -1402 c13 -30 63 -75 94 -84
19 -6 15 -13 -44 -74 -36 -36 -75 -86 -86 -111 -20 -43 -28 -110 -14 -110 3 0
67 63 140 140 122 127 172 165 190 146 4 -4 -64 -78 -152 -166 -157 -157 -159
-159 -140 -180 21 -24 8 -26 -40 -6 -68 29 -65 -5 -65 807 l0 732 48 90 47 90
5 -624 c4 -443 8 -631 17 -650z m1598 1181 l45 -90 0 -729 c0 -440 -4 -740
-10 -755 -11 -29 -42 -51 -85 -62 l-30 -7 33 30 c17 17 32 35 32 39 0 4 -17
-9 -38 -29 -33 -32 -82 -50 -82 -30 0 4 27 35 61 69 l60 61 -17 36 c-10 21
-20 37 -24 37 -3 0 -52 -47 -110 -105 -77 -78 -111 -105 -130 -105 -21 0 -6
19 102 128 l127 127 -21 39 -20 38 -167 -166 c-114 -113 -174 -166 -189 -166
-12 0 -22 3 -22 7 0 4 78 85 172 180 122 122 167 173 153 173 -14 0 -9 7 20
24 22 13 49 39 60 58 19 32 20 53 23 661 1 345 5 627 7 627 3 0 25 -40 50 -90z
m-1145 -1277 c0 -16 -356 -363 -372 -363 -10 0 -18 3 -18 7 0 16 356 363 372
363 10 0 18 -3 18 -7z m180 0 c0 -4 -80 -88 -177 -185 -136 -136 -184 -178
-203 -178 -21 0 5 30 160 185 159 160 220 209 220 178z m170 0 c0 -16 -356
-363 -372 -363 -10 0 -18 3 -18 7 0 16 356 363 372 363 10 0 18 -3 18 -7z
m180 0 c0 -4 -80 -88 -177 -185 -126 -126 -184 -178 -200 -178 -13 0 -23 4
-23 9 0 17 363 361 382 361 10 0 18 -3 18 -7z m350 0 c0 -4 -80 -88 -177 -185
-136 -136 -184 -178 -203 -178 -21 0 5 30 160 185 159 160 220 209 220 178z
m-355 -183 c-155 -155 -215 -203 -215 -173 0 4 78 85 172 180 132 132 179 173
198 173 21 0 -4 -29 -155 -180z"/>
<path d="M8752 1387 c-80 -80 -132 -140 -132 -152 0 -28 258 -285 287 -285 26
0 53 25 53 48 0 9 -50 66 -110 127 l-110 110 105 105 c107 106 124 137 93 168
-28 28 -55 10 -186 -121z"/>
</g>
</svg>
